<svg width="24" height="24" viewBox="0 0 24 24" fill="none" xmlns="http://www.w3.org/2000/svg">
<path fill-rule="evenodd" clip-rule="evenodd" d="M11.503 2.43828C11.7867 2.18724 12.2132 2.18724 12.4969 2.43828C14.6868 4.3757 17.5449 5.38444 20.4657 5.25078C20.8108 5.23499 21.1221 5.45701 21.2195 5.78848C21.7015 7.42793 21.8489 9.14753 21.6531 10.8451C21.4574 12.5427 20.9223 14.1836 20.0799 15.6703C19.2374 17.157 18.1047 18.4592 16.749 19.4995C15.3933 20.5398 13.8423 21.2969 12.1883 21.726C12.0648 21.758 11.9351 21.758 11.8117 21.726C10.1576 21.2969 8.6066 20.5398 7.25092 19.4995C5.89524 18.4592 4.76251 17.157 3.92004 15.6703C3.07756 14.1836 2.54254 12.5427 2.34677 10.8451C2.151 9.14753 2.29846 7.42793 2.7804 5.78848C2.87784 5.45701 3.18911 5.23499 3.53424 5.25078C6.45505 5.38444 9.31315 4.3757 11.503 2.43828ZM4.0726 6.76253C3.76624 8.04085 3.68596 9.36448 3.83689 10.6733C4.00964 12.1711 4.48171 13.619 5.22507 14.9308C5.96843 16.2426 6.96789 17.3916 8.16408 18.3095C9.30869 19.1878 10.6111 19.8374 12 20.2234C13.3888 19.8374 14.6912 19.1878 15.8358 18.3095C17.032 17.3916 18.0315 16.2426 18.7748 14.9308C19.5182 13.619 19.9903 12.1711 20.163 10.6733C20.314 9.36447 20.2337 8.04085 19.9273 6.76253C17.0462 6.75719 14.2514 5.77568 12 3.97935C9.7485 5.77568 6.95367 6.75719 4.0726 6.76253ZM15.5303 9.46967C15.8232 9.76256 15.8232 10.2374 15.5303 10.5303L11.5303 14.5303C11.2374 14.8232 10.7625 14.8232 10.4696 14.5303L8.46963 12.5303C8.17673 12.2374 8.17673 11.7626 8.46963 11.4697C8.76252 11.1768 9.23739 11.1768 9.53029 11.4697L11 12.9393L14.4696 9.46967C14.7625 9.17678 15.2374 9.17678 15.5303 9.46967Z" fill="#30ABA9"/>
</svg>
