<svg width="70" height="36" viewBox="0 0 70 36" fill="none" xmlns="http://www.w3.org/2000/svg">
<path fill-rule="evenodd" clip-rule="evenodd" d="M11.5789 16.3732C11.5789 15.7606 11.0823 15.2639 10.4697 15.2639C9.81623 15.2639 9.2865 15.7937 9.2865 16.4471V17.7412C9.2865 17.822 9.22463 17.8932 9.14382 17.8932H8.73189C8.07843 17.8932 7.54871 18.4229 7.54871 19.0763V27.0258C7.54871 27.6793 8.07843 28.209 8.73189 28.209H26.1838C26.8372 28.209 27.367 27.6793 27.367 27.0258V19.0763C27.367 18.4229 26.8372 17.8932 26.1838 17.8932H25.7719C25.6911 17.8932 25.6292 17.822 25.6292 17.7412V16.4471C25.6292 15.7937 25.0994 15.2639 24.446 15.2639C23.8334 15.2639 23.3368 15.7606 23.3368 16.3732V17.7247C23.3368 19.0838 22.235 20.1856 20.8759 20.1856H14.0397C12.6807 20.1856 11.5789 19.0838 11.5789 17.7248V16.3732ZM9.94337 23.2027C9.94337 22.6799 10.3672 22.2561 10.8899 22.2561H12.4149C12.9377 22.2561 13.3615 22.6799 13.3615 23.2027V24.6373C13.3615 25.16 12.9377 25.5838 12.4149 25.5838H10.8899C10.3672 25.5838 9.94337 25.16 9.94337 24.6373V23.2027ZM16.6952 22.2561C16.1724 22.2561 15.7486 22.6799 15.7486 23.2027V24.6373C15.7486 25.16 16.1724 25.5838 16.6952 25.5838H18.2202C18.743 25.5838 19.1667 25.16 19.1667 24.6373V23.2027C19.1667 22.6799 18.743 22.2561 18.2202 22.2561H16.6952ZM21.5542 23.2027C21.5542 22.6799 21.978 22.2561 22.5007 22.2561H24.0258C24.5485 22.2561 24.9723 22.6799 24.9723 23.2027V24.6373C24.9723 25.16 24.5485 25.5838 24.0258 25.5838H22.5007C21.978 25.5838 21.5542 25.16 21.5542 24.6373V23.2027Z" fill="#0EE0C8"/>
<path d="M13.8881 11.6815C13.8881 11.028 14.4178 10.4983 15.0712 10.4983H19.8447C20.4981 10.4983 21.0279 11.028 21.0279 11.6815V17.8932H13.8881V11.6815Z" fill="#0EE0C8"/>
<g clip-path="url(#clip0_248_1355)">
<path d="M39.5516 12.8915C39.0353 12.8915 38.5736 12.7642 38.1664 12.5098C37.7665 12.2553 37.4502 11.9172 37.2175 11.4954C36.9849 11.0664 36.8685 10.5938 36.8685 10.0776C36.8685 9.56861 36.9921 9.10326 37.2394 8.68154C37.4938 8.25254 37.8356 7.91444 38.2646 7.66722C38.6936 7.41274 39.1771 7.28549 39.7152 7.28549C40.2532 7.28549 40.7367 7.4091 41.1657 7.65632C41.5947 7.89626 41.9328 8.2271 42.18 8.64882C42.4345 9.07054 42.5618 9.54679 42.5618 10.0776V12.7606H41.5366V10.7647L41.9074 10.4811C41.9074 10.9319 41.8056 11.3391 41.602 11.7027C41.4057 12.0662 41.1294 12.3571 40.7731 12.5752C40.4241 12.7861 40.0169 12.8915 39.5516 12.8915ZM39.7152 11.8663C40.0496 11.8663 40.3514 11.7863 40.6204 11.6263C40.8894 11.4664 41.1003 11.2519 41.253 10.9828C41.4057 10.7065 41.482 10.4084 41.482 10.0885C41.482 9.76129 41.4057 9.46318 41.253 9.19415C41.1003 8.92512 40.8894 8.71062 40.6204 8.55066C40.3514 8.38342 40.0496 8.29981 39.7152 8.29981C39.3807 8.29981 39.0789 8.38342 38.8099 8.55066C38.5481 8.71062 38.3373 8.92512 38.1773 9.19415C38.0246 9.46318 37.9483 9.76129 37.9483 10.0885C37.9483 10.4084 38.0246 10.7065 38.1773 10.9828C38.3373 11.2519 38.5481 11.4664 38.8099 11.6263C39.0789 11.7863 39.3807 11.8663 39.7152 11.8663Z" fill="#94A3B8"/>
<path d="M43.8903 4.96239H44.9701V12.7606H43.8903V4.96239Z" fill="#94A3B8"/>
<path d="M48.7904 12.8806C48.2523 12.8806 47.7688 12.7606 47.3398 12.5207C46.9108 12.2734 46.5727 11.939 46.3255 11.5173C46.0783 11.0883 45.9547 10.6011 45.9547 10.0558C45.9547 9.54679 46.0674 9.08145 46.2928 8.65972C46.5182 8.23073 46.8345 7.89263 47.2416 7.64541C47.6488 7.39092 48.1214 7.26368 48.6595 7.26368C49.1976 7.26368 49.6593 7.38365 50.0446 7.6236C50.4373 7.85627 50.739 8.1762 50.9499 8.58338C51.168 8.98329 51.2771 9.43046 51.2771 9.92489V10.3612H46.7945L46.9908 9.92489C46.969 10.303 47.0308 10.6411 47.1762 10.9392C47.3216 11.2373 47.5325 11.4773 47.8088 11.659C48.0851 11.8335 48.4087 11.9208 48.7795 11.9208C49.1139 11.9208 49.4157 11.8481 49.6847 11.7027C49.961 11.5572 50.1792 11.3391 50.3391 11.0483L51.168 11.4736C50.9353 11.9317 50.6118 12.2807 50.1973 12.5207C49.7829 12.7606 49.3139 12.8806 48.7904 12.8806ZM47.0453 9.66313H50.1973C50.1828 9.37956 50.1064 9.12871 49.9683 8.91058C49.8374 8.69244 49.6556 8.52521 49.423 8.40887C49.1976 8.29254 48.9394 8.23437 48.6486 8.23437C48.3505 8.23437 48.0851 8.29617 47.8524 8.41978C47.627 8.54339 47.4452 8.71426 47.3071 8.93239C47.1762 9.15052 47.089 9.3941 47.0453 9.66313Z" fill="#94A3B8"/>
<path d="M54.5403 15.3455C53.9659 15.3455 53.4496 15.2219 52.9916 14.9746C52.5335 14.7274 52.1808 14.3675 51.9336 13.8949L52.8389 13.4041C52.9916 13.6949 53.2133 13.924 53.5042 14.0912C53.795 14.2657 54.1331 14.353 54.5185 14.353C54.8966 14.353 55.2238 14.2657 55.5001 14.0912C55.7836 13.924 56.0054 13.684 56.1654 13.3714C56.3253 13.066 56.4053 12.7061 56.4053 12.2916V11.1682L56.678 10.9174C56.678 11.2373 56.5907 11.5463 56.4162 11.8445C56.249 12.1353 56.0018 12.3752 55.6746 12.5643C55.3547 12.7461 54.9656 12.837 54.5076 12.837C54.0059 12.837 53.5478 12.717 53.1333 12.477C52.7262 12.2298 52.399 11.899 52.1517 11.4845C51.9118 11.0628 51.7918 10.5902 51.7918 10.0667C51.7918 9.5577 51.9154 9.09235 52.1627 8.67063C52.4171 8.24891 52.7589 7.91444 53.1879 7.66722C53.6169 7.41274 54.1004 7.28549 54.6385 7.28549C55.1765 7.28549 55.66 7.4091 56.089 7.65632C56.518 7.89626 56.8561 8.2271 57.1033 8.64882C57.3578 9.07054 57.4851 9.54679 57.4851 10.0776V12.2807C57.4851 12.8988 57.3578 13.4368 57.1033 13.8949C56.8489 14.3602 56.4998 14.7165 56.0563 14.9637C55.6128 15.2182 55.1074 15.3455 54.5403 15.3455ZM54.6275 11.8226C54.9547 11.8226 55.2529 11.7463 55.5219 11.5936C55.7909 11.4336 56.0018 11.2191 56.1545 10.9501C56.3144 10.6738 56.3944 10.3757 56.3944 10.0558C56.3944 9.72857 56.3144 9.43409 56.1545 9.17233C56.0018 8.9033 55.7909 8.69244 55.5219 8.53975C55.2529 8.38706 54.9547 8.31071 54.6275 8.31071C54.3003 8.31071 54.0022 8.38706 53.7332 8.53975C53.4714 8.69244 53.2606 8.9033 53.1006 9.17233C52.9407 9.43409 52.8607 9.72857 52.8607 10.0558C52.8607 10.3757 52.9407 10.6738 53.1006 10.9501C53.2606 11.2191 53.4714 11.4336 53.7332 11.5936C54.0022 11.7463 54.3003 11.8226 54.6275 11.8226Z" fill="#94A3B8"/>
<path d="M59.6753 12.7606H58.5955V9.57588C58.5955 9.13961 58.6755 8.75061 58.8354 8.40887C59.0027 8.06713 59.2426 7.7981 59.5553 7.60178C59.8752 7.40547 60.2678 7.30731 60.7332 7.30731C60.9077 7.30731 61.0749 7.32548 61.2349 7.36184C61.4021 7.39092 61.5548 7.43819 61.693 7.50362V8.57247C61.5621 8.49249 61.4203 8.43432 61.2676 8.39797C61.1222 8.36161 60.9768 8.34343 60.8314 8.34343C60.4751 8.34343 60.1915 8.45977 59.9806 8.69244C59.777 8.91785 59.6753 9.22687 59.6753 9.6195V12.7606Z" fill="#94A3B8"/>
<path d="M64.4024 12.8915C63.8862 12.8915 63.4245 12.7642 63.0173 12.5098C62.6174 12.2553 62.3011 11.9172 62.0684 11.4954C61.8357 11.0664 61.7194 10.5938 61.7194 10.0776C61.7194 9.56861 61.843 9.10326 62.0902 8.68154C62.3447 8.25254 62.6864 7.91444 63.1154 7.66722C63.5444 7.41274 64.028 7.28549 64.566 7.28549C65.1041 7.28549 65.5876 7.4091 66.0166 7.65632C66.4456 7.89626 66.7837 8.2271 67.0309 8.64882C67.2854 9.07054 67.4126 9.54679 67.4126 10.0776V12.7606H66.3874V10.7647L66.7582 10.4811C66.7582 10.9319 66.6564 11.3391 66.4529 11.7027C66.2565 12.0662 65.9802 12.3571 65.624 12.5752C65.2749 12.7861 64.8678 12.8915 64.4024 12.8915ZM64.566 11.8663C64.9005 11.8663 65.2022 11.7863 65.4713 11.6263C65.7403 11.4664 65.9512 11.2519 66.1038 10.9828C66.2565 10.7065 66.3329 10.4084 66.3329 10.0885C66.3329 9.76129 66.2565 9.46318 66.1038 9.19415C65.9512 8.92512 65.7403 8.71062 65.4713 8.55066C65.2022 8.38342 64.9005 8.29981 64.566 8.29981C64.2315 8.29981 63.9298 8.38342 63.6608 8.55066C63.399 8.71062 63.1881 8.92512 63.0282 9.19415C62.8755 9.46318 62.7991 9.76129 62.7991 10.0885C62.7991 10.4084 62.8755 10.7065 63.0282 10.9828C63.1881 11.2519 63.399 11.4664 63.6608 11.6263C63.9298 11.7863 64.2315 11.8663 64.566 11.8663Z" fill="#94A3B8"/>
<rect x="46.803" y="9.49248" width="3.73534" height="0.397377" fill="#94A3B8"/>
</g>
<g clip-path="url(#clip1_248_1355)">
<path d="M37.4027 26.9581H35.9149V17.1854H39.0218C39.8969 17.1854 40.6554 17.3166 41.2972 17.5792C41.9487 17.832 42.4544 18.2161 42.8142 18.7315C43.1739 19.2371 43.3538 19.8741 43.3538 20.6423C43.3538 21.4202 43.1739 22.0717 42.8142 22.5968C42.4544 23.1122 41.9536 23.5012 41.3118 23.7637C40.6797 24.0165 39.9407 24.1429 39.0947 24.1429H37.0235L37.1985 22.7573H39.0655C39.6003 22.7573 40.072 22.6843 40.4804 22.5385C40.8985 22.3926 41.2243 22.1641 41.4576 21.8529C41.7007 21.532 41.8223 21.1285 41.8223 20.6423C41.8223 20.1658 41.7056 19.7768 41.4722 19.4754C41.2486 19.1642 40.9277 18.9357 40.5095 18.7898C40.1011 18.6343 39.6198 18.5565 39.0655 18.5565H37.4027V26.9581Z" fill="#334155"/>
<path d="M49.4301 27.1331C48.7202 27.1331 48.059 27.0067 47.4464 26.7539C46.8435 26.4913 46.3135 26.1315 45.8565 25.6745C45.3995 25.2175 45.0397 24.6826 44.7771 24.07C44.5243 23.4477 44.3979 22.7767 44.3979 22.0571C44.3979 21.3473 44.5243 20.6909 44.7771 20.088C45.0397 19.4754 45.3995 18.9406 45.8565 18.4835C46.3135 18.0265 46.8435 17.6716 47.4464 17.4187C48.059 17.1562 48.7202 17.0249 49.4301 17.0249C50.14 17.0249 50.7963 17.1562 51.3992 17.4187C52.0021 17.6716 52.5321 18.0265 52.9891 18.4835C53.4461 18.9406 53.8011 19.4754 54.0539 20.088C54.3067 20.6909 54.4331 21.3473 54.4331 22.0571C54.4331 22.7767 54.3067 23.4477 54.0539 24.07C53.8011 24.6826 53.4461 25.2175 52.9891 25.6745C52.5321 26.1315 52.0021 26.4913 51.3992 26.7539C50.7963 27.0067 50.14 27.1331 49.4301 27.1331ZM49.4301 25.7182C49.9066 25.7182 50.3539 25.6259 50.772 25.4411C51.1999 25.2466 51.5743 24.9841 51.8952 24.6535C52.216 24.3228 52.464 23.9387 52.639 23.5012C52.8141 23.0538 52.9016 22.5725 52.9016 22.0571C52.9016 21.5515 52.8141 21.0799 52.639 20.6423C52.464 20.2047 52.216 19.8206 51.8952 19.49C51.5743 19.1594 51.2047 18.9017 50.7866 18.7169C50.3685 18.5322 49.9163 18.4398 49.4301 18.4398C48.9439 18.4398 48.4869 18.5322 48.059 18.7169C47.6311 18.9017 47.2568 19.1594 46.9359 19.49C46.6247 19.8206 46.3767 20.2047 46.192 20.6423C46.0169 21.0799 45.9294 21.5515 45.9294 22.0571C45.9294 22.5725 46.0169 23.0538 46.192 23.5012C46.3767 23.9387 46.6247 24.3228 46.9359 24.6535C47.2568 24.9841 47.6311 25.2466 48.059 25.4411C48.4869 25.6259 48.9439 25.7182 49.4301 25.7182Z" fill="#334155"/>
<path d="M59.4151 27.1185C58.5885 27.1185 57.8544 26.9386 57.2126 26.5788C56.5708 26.219 56.0992 25.7037 55.7977 25.0327L57.0521 24.4201C57.2369 24.8382 57.5335 25.1591 57.9419 25.3828C58.3503 25.6064 58.8414 25.7182 59.4151 25.7182C59.7943 25.7182 60.1347 25.6648 60.4361 25.5578C60.7376 25.4411 60.9758 25.2709 61.1508 25.0473C61.3356 24.8139 61.428 24.5368 61.428 24.2159C61.428 23.8561 61.3307 23.5838 61.1363 23.3991C60.9418 23.2046 60.6792 23.0636 60.3486 22.9761C60.0277 22.8788 59.6728 22.7962 59.2838 22.7281C58.9143 22.6503 58.5351 22.5579 58.1461 22.451C57.7669 22.3343 57.4119 22.1738 57.0813 21.9696C56.7507 21.7654 56.4833 21.498 56.2791 21.1674C56.0846 20.827 55.9874 20.3992 55.9874 19.8838C55.9874 19.3392 56.1332 18.853 56.4249 18.4252C56.7264 17.9973 57.1251 17.6618 57.621 17.4187C58.1267 17.1659 58.6907 17.0395 59.313 17.0395C60.0617 17.0395 60.7424 17.2145 61.355 17.5646C61.9677 17.9049 62.4198 18.4106 62.7116 19.0816L61.4717 19.7234C61.287 19.3149 61.005 18.9989 60.6257 18.7753C60.2465 18.5419 59.7895 18.4252 59.2546 18.4252C58.924 18.4252 58.6226 18.4884 58.3503 18.6148C58.0878 18.7315 57.8738 18.8968 57.7085 19.1107C57.5432 19.3149 57.4606 19.558 57.4606 19.84C57.4606 20.1901 57.5627 20.4624 57.7669 20.6569C57.9711 20.8416 58.2385 20.9875 58.5691 21.0944C58.9094 21.1917 59.279 21.2792 59.6776 21.357C60.0472 21.4348 60.4215 21.532 60.8008 21.6487C61.18 21.7557 61.5252 21.9113 61.8364 22.1155C62.1573 22.3197 62.415 22.592 62.6095 22.9323C62.8137 23.2629 62.9158 23.6859 62.9158 24.2013C62.9158 24.775 62.7602 25.2807 62.449 25.7182C62.1378 26.1461 61.7148 26.4864 61.18 26.7393C60.6549 26.9921 60.0666 27.1185 59.4151 27.1185Z" fill="#334155"/>
</g>
<defs>
<clipPath id="clip0_248_1355">
<rect width="33.3797" height="10.4113" fill="white" transform="translate(35.9149 4.96239)"/>
</clipPath>
<clipPath id="clip1_248_1355">
<rect width="27.0008" height="14.8908" fill="white" transform="translate(35.9149 15.3737)"/>
</clipPath>
</defs>
</svg>
