<svg width="48" height="48" viewBox="0 0 48 48" fill="none" xmlns="http://www.w3.org/2000/svg">
<path d="M19.8408 8.375C18.7363 8.375 17.8408 9.27043 17.8408 10.375V20.875H29.9097V10.375C29.9097 9.27043 29.0142 8.375 27.9097 8.375H19.8408Z" fill="#00B19D"/>
<path fill-rule="evenodd" clip-rule="evenodd" d="M13.9375 16.4307H12.0625C10.9579 16.4307 10.0625 17.3261 10.0625 18.4307V20.6182C10.0625 20.7052 10.0681 20.7909 10.0788 20.875H9.125C8.02043 20.875 7.125 21.7704 7.125 22.875V36.3125C7.125 37.4171 8.02043 38.3125 9.125 38.3125H38.625C39.7296 38.3125 40.625 37.4171 40.625 36.3125V22.875C40.625 21.7704 39.7296 20.875 38.625 20.875H37.6712C37.6819 20.7909 37.6875 20.7052 37.6875 20.6182V18.4307C37.6875 17.3261 36.7921 16.4307 35.6875 16.4307H33.8125V24.75H13.9375V16.4307ZM11.1729 29.85C11.1729 28.9663 11.8892 28.25 12.7729 28.25H15.3507C16.2343 28.25 16.9507 28.9663 16.9507 29.85V32.275C16.9507 33.1587 16.2343 33.875 15.3507 33.875H12.7729C11.8892 33.875 11.1729 33.1587 11.1729 32.275V29.85ZM22.5858 28.25C21.7022 28.25 20.9858 28.9663 20.9858 29.85V32.275C20.9858 33.1587 21.7022 33.875 22.5858 33.875H25.1637C26.0473 33.875 26.7637 33.1587 26.7637 32.275V29.85C26.7637 28.9663 26.0473 28.25 25.1637 28.25H22.5858ZM30.7993 29.85C30.7993 28.9663 31.5157 28.25 32.3993 28.25H34.9771C35.8608 28.25 36.5771 28.9663 36.5771 29.85V32.275C36.5771 33.1587 35.8608 33.875 34.9771 33.875H32.3993C31.5157 33.875 30.7993 33.1587 30.7993 32.275V29.85Z" fill="#00B19D"/>
</svg>
