<svg width="24" height="24" viewBox="0 0 24 24" fill="none" xmlns="http://www.w3.org/2000/svg">
<path fill-rule="evenodd" clip-rule="evenodd" d="M12 8.25C9.92895 8.25 8.25002 9.92893 8.25002 12C8.25002 14.0711 9.92895 15.75 12 15.75C14.0711 15.75 15.75 14.0711 15.75 12C15.75 9.92893 14.0711 8.25 12 8.25ZM9.75002 12C9.75002 10.7574 10.7574 9.75 12 9.75C13.2427 9.75 14.25 10.7574 14.25 12C14.25 13.2426 13.2427 14.25 12 14.25C10.7574 14.25 9.75002 13.2426 9.75002 12Z" fill="#94A3B8"/>
<path fill-rule="evenodd" clip-rule="evenodd" d="M14.4039 4.14018C13.7925 1.62007 10.2079 1.61994 9.59626 4.13979C9.44001 4.78121 8.70905 5.08552 8.14265 4.74115C5.92738 3.39294 3.39356 5.92791 4.74251 8.1422C4.82235 8.27313 4.87028 8.4213 4.88213 8.57419C4.89399 8.72708 4.86957 8.88061 4.81088 9.02228C4.75218 9.16396 4.66086 9.28977 4.54436 9.38948C4.42785 9.48919 4.28944 9.55998 4.14041 9.59609C1.62016 10.2075 1.61996 13.7925 4.1402 14.4039C4.28895 14.4401 4.42707 14.5109 4.54334 14.6105C4.65971 14.7102 4.75092 14.836 4.80955 14.9776C4.86817 15.1191 4.89257 15.2726 4.88074 15.4253C4.86891 15.5781 4.8212 15.726 4.74148 15.8569C3.39275 18.0722 5.9278 20.6065 8.14222 19.2575C8.27315 19.1777 8.42132 19.1297 8.57421 19.1179C8.7271 19.106 8.88063 19.1304 9.0223 19.1891C9.16397 19.2478 9.28979 19.3392 9.3895 19.4557C9.48921 19.5722 9.56 19.7106 9.59611 19.8596C10.2075 22.3799 13.7925 22.3801 14.4039 19.8598C14.4401 19.7111 14.5109 19.573 14.6105 19.4567C14.7102 19.3403 14.836 19.2491 14.9776 19.1905C15.1192 19.1318 15.2726 19.1075 15.4254 19.1193C15.5782 19.1311 15.726 19.1788 15.8569 19.2585C18.0722 20.6073 20.6066 18.0722 19.2575 15.8578C19.1777 15.7269 19.1298 15.5787 19.1179 15.4258C19.1061 15.2729 19.1305 15.1194 19.1892 14.9777C19.2479 14.836 19.3392 14.7102 19.4557 14.6105C19.5722 14.5108 19.7106 14.44 19.8596 14.4039C22.3799 13.7925 22.3801 10.2075 19.8598 9.59614C19.7111 9.5599 19.573 9.4891 19.4567 9.38949C19.3403 9.28979 19.2491 9.16404 19.1905 9.02245C19.1319 8.88086 19.1075 8.72744 19.1193 8.57465C19.1311 8.42187 19.1788 8.27403 19.2586 8.14315C20.6073 5.92778 18.0722 3.39347 15.8578 4.7425C15.7269 4.82233 15.5787 4.87026 15.4258 4.88211C15.2729 4.89397 15.1194 4.86955 14.9777 4.81086C14.8361 4.75216 14.7103 4.66085 14.6105 4.54434C14.5108 4.42783 14.44 4.28922 14.4039 4.14018ZM11.0539 4.49382C11.2945 3.50206 12.7056 3.50206 12.9462 4.49382C13.0379 4.8723 13.2177 5.22378 13.4709 5.51966C13.7242 5.8156 14.0438 6.04755 14.4036 6.19663C14.7635 6.34572 15.1534 6.40773 15.5418 6.37762C15.93 6.34752 16.3057 6.22619 16.6382 6.0235C17.5098 5.49256 18.5086 6.49025 17.9775 7.36285C17.775 7.69528 17.6538 8.07081 17.6238 8.45889C17.5937 8.84698 17.6557 9.23668 17.8046 9.59631C17.9535 9.95594 18.1852 10.2754 18.4808 10.5286C18.7764 10.7819 19.1276 10.9618 19.5058 11.0538C20.4976 11.2944 20.498 12.7055 19.5062 12.9461C19.1277 13.0379 18.7762 13.2177 18.4804 13.4709C18.1844 13.7242 17.9525 14.0437 17.8034 14.4036C17.6543 14.7634 17.5923 15.1534 17.6224 15.5418C17.6525 15.93 17.7738 16.3057 17.9765 16.6382C18.5075 17.5097 17.5098 18.5085 16.6372 17.9775C16.3047 17.775 15.9292 17.6538 15.5411 17.6238C15.153 17.5937 14.7633 17.6557 14.4037 17.8046C14.0441 17.9535 13.7247 18.1852 13.4714 18.4808C13.2182 18.7764 13.0382 19.1276 12.9463 19.5058C12.7057 20.4975 11.2945 20.4979 11.0539 19.5062C10.9621 19.1277 10.7823 18.7762 10.5291 18.4803C10.2759 18.1844 9.95629 17.9525 9.59643 17.8034C9.23658 17.6543 8.84661 17.5923 8.45826 17.6224C8.07 17.6525 7.69433 17.7738 7.36182 17.9765C6.49028 18.5074 5.49147 17.5098 6.02255 16.6371C6.22504 16.3047 6.34623 15.9292 6.37627 15.5411C6.40631 15.153 6.34435 14.7633 6.19543 14.4037C6.04652 14.0441 5.81485 13.7246 5.51925 13.4714C5.22365 13.2181 4.87246 13.0382 4.49424 12.9462C3.50248 12.7056 3.50208 11.2945 4.49384 11.0539C4.87232 10.9621 5.2238 10.7823 5.51968 10.5291C5.81561 10.2758 6.04756 9.95627 6.19665 9.59641C6.34574 9.23656 6.40775 8.84659 6.37764 8.45824C6.34754 8.06998 6.22621 7.69432 6.02352 7.3618C5.49255 6.49022 6.49037 5.49135 7.36301 6.02262C8.7965 6.89418 10.6579 6.12213 11.0539 4.49382Z" fill="#94A3B8"/>
</svg>
