<svg width="20" height="20" viewBox="0 0 20 20" fill="none" xmlns="http://www.w3.org/2000/svg">
<path fill-rule="evenodd" clip-rule="evenodd" d="M10 2.70831C9.19458 2.70831 8.54166 3.36123 8.54166 4.16665C8.54166 4.97206 9.19458 5.62498 10 5.62498C10.8054 5.62498 11.4583 4.97206 11.4583 4.16665C11.4583 3.36123 10.8054 2.70831 10 2.70831Z" fill="#94A3B8"/>
<path fill-rule="evenodd" clip-rule="evenodd" d="M8.54166 9.99998C8.54166 9.19456 9.19458 8.54165 10 8.54165C10.8054 8.54165 11.4583 9.19456 11.4583 9.99998C11.4583 10.8054 10.8054 11.4583 10 11.4583C9.19458 11.4583 8.54166 10.8054 8.54166 9.99998Z" fill="#94A3B8"/>
<path fill-rule="evenodd" clip-rule="evenodd" d="M8.54166 15.8333C8.54166 15.0279 9.19458 14.375 10 14.375C10.8054 14.375 11.4583 15.0279 11.4583 15.8333C11.4583 16.6387 10.8054 17.2916 10 17.2916C9.19458 17.2916 8.54166 16.6387 8.54166 15.8333Z" fill="#94A3B8"/>
</svg>
